<?xml version="1.0" encoding="utf-8"?>
<!-- Generator: Adobe Illustrator 27.5.0, SVG Export Plug-In . SVG Version: 6.00 Build 0)  -->
<svg version="1.1" xmlns="http://www.w3.org/2000/svg" xmlns:xlink="http://www.w3.org/1999/xlink" x="0px" y="0px"
	 viewBox="0 0 750 500" style="enable-background:new 0 0 750 500;" xml:space="preserve">
<g id="BACKGROUND">
	<rect style="fill:#FFFFFF;" width="750" height="500"/>
</g>
<g id="OBJECTS">
	<path style="fill:#EBEBEB;" d="M649.994,457.708H100.021c-4.867,0-8.849-3.982-8.849-8.849v0c0-4.867,3.982-8.849,8.849-8.849
		h549.973c4.867,0,8.849,3.982,8.849,8.849v0C658.843,453.725,654.861,457.708,649.994,457.708z"/>
	<g>
		<g>
			<rect x="605.214" y="277.058" style="fill:#BD7C71;" width="11.338" height="91.807"/>
			<polygon style="fill:#A86E65;" points="616.552,360.385 605.214,362.253 605.214,368.866 616.552,368.866 			"/>
			<path style="fill:#A86E65;" d="M605.214,338.832c3.323,2.479,6.982,3.855,10.826,3.855c0.172,0,0.341-0.017,0.512-0.023v-65.606
				h-11.338V338.832z"/>
		</g>
		<g>
			<path style="fill:#16C69A;" d="M658.843,285.086c0,26.487-21.472,47.96-47.96,47.96c-26.487,0-47.96-21.472-47.96-47.96
				c0-26.488,21.472-109.13,47.96-109.13C637.371,175.956,658.843,258.599,658.843,285.086z"/>
			<path style="fill:#15BA91;" d="M620.666,179.651c15.641,24.909,22.18,81.459,19.705,102.099
				c-3.154,26.299-27.031,45.062-53.33,41.907c-2.102-0.252-4.15-0.651-6.149-1.158c8.214,6.593,18.638,10.547,29.991,10.547
				c26.487,0,47.96-21.472,47.96-47.96C658.843,261.951,642.462,195.982,620.666,179.651z"/>
		</g>
	</g>
	<g>
		<g>
			<path style="fill:#BD7C71;" d="M586.565,430.406h48.637v3.028c0,1.665-1.363,3.028-3.028,3.028h-42.581
				c-1.665,0-3.028-1.363-3.028-3.028V430.406z"/>
			<path style="fill:#BD7C71;" d="M650.584,375.036h-79.402v-6.706c0-1.769,1.447-3.217,3.217-3.217h72.969
				c1.769,0,3.217,1.448,3.217,3.217V375.036z"/>
			<path style="fill:#D9988D;" d="M586.565,430.406c0,0-12.788-19.343-15.383-55.37h39.701h39.701
				c-2.595,36.026-15.383,55.37-15.383,55.37H586.565z"/>
			<path style="fill:#BD7C71;" d="M588.459,375.036c2.144,36.026,12.566,55.37,12.566,55.37h-10.473c0,0-12.545-19.343-14.689-55.37
				C575.863,375.036,583.002,375.036,588.459,375.036z"/>
			<path style="fill:#D18D82;" d="M632.141,375.036c-1.456,36.026-11.383,55.369-11.383,55.369h10.346
				c0,0,12.176-19.343,13.632-55.369C644.737,375.036,637.598,375.036,632.141,375.036z"/>
			<path style="fill:#D18D82;" d="M599.34,375.036c-0.429,36.026,10.735,55.37,10.735,55.37h-4.085c0,0-11.164-19.343-10.735-55.37
				C595.255,375.036,596.962,375.036,599.34,375.036z"/>
		</g>
	</g>
	<g>
		<g>
			<g>
				
					<rect x="153.889" y="233.413" transform="matrix(-1 -1.224647e-16 1.224647e-16 -1 319.1163 602.2785)" style="fill:#BD7C71;" width="11.338" height="135.453"/>
				<polygon style="fill:#A86E65;" points="153.889,360.385 165.227,362.253 165.227,368.866 153.889,368.866 				"/>
				<path style="fill:#A86E65;" d="M165.227,295.186c-3.324,2.479-6.982,3.855-10.827,3.855c-0.172,0-0.341-0.017-0.512-0.022
					v-65.606h11.338V295.186z"/>
			</g>
			<g>
				<circle style="fill:#13AB85;" cx="159.558" cy="231.317" r="59.526"/>
				<path style="fill:#119171;" d="M166.048,279.996c-30.965,0-56.067-25.102-56.067-56.067c0-19.814,10.288-37.215,25.804-47.187
					c-21.04,9.178-35.752,30.154-35.752,54.575c0,32.875,26.651,59.526,59.526,59.526c27.089,0,49.936-18.102,57.145-42.865
					C207.7,266.908,188.405,279.996,166.048,279.996z"/>
			</g>
		</g>
		<g>
			<path style="fill:#BD7C71;" d="M183.876,430.406H135.24v3.028c0,1.665,1.363,3.028,3.028,3.028h42.581
				c1.665,0,3.028-1.363,3.028-3.028V430.406z"/>
			<path style="fill:#BD7C71;" d="M119.857,375.036h79.402v-6.706c0-1.769-1.448-3.217-3.217-3.217h-72.969
				c-1.769,0-3.217,1.448-3.217,3.217V375.036z"/>
			<path style="fill:#D9988D;" d="M183.876,430.406c0,0,12.788-19.343,15.383-55.37h-39.701h-39.701
				c2.595,36.026,15.383,55.37,15.383,55.37H183.876z"/>
			<path style="fill:#BD7C71;" d="M181.982,375.036c-2.144,36.026-12.566,55.37-12.566,55.37h10.473c0,0,12.545-19.343,14.689-55.37
				C194.578,375.036,187.439,375.036,181.982,375.036z"/>
			<path style="fill:#BD7C71;" d="M138.3,375.036c1.456,36.026,11.383,55.369,11.383,55.369h-10.347
				c0,0-12.176-19.343-13.632-55.369C125.704,375.036,132.843,375.036,138.3,375.036z"/>
			<path style="fill:#BD7C71;" d="M171.102,375.036c0.429,36.026-10.735,55.37-10.735,55.37h4.085c0,0,11.164-19.343,10.735-55.37
				C175.187,375.036,173.479,375.036,171.102,375.036z"/>
		</g>
	</g>
	<g>
		<path style="fill:#D9988D;" d="M646.561,449.613H103.454c-3.706,0-6.739-3.033-6.739-6.739l0,0c0-3.706,3.033-6.739,6.739-6.739
			h543.107c3.706,0,6.739,3.033,6.739,6.739l0,0C653.3,446.58,650.267,449.613,646.561,449.613z"/>
		<path style="fill:#BD7C71;" d="M646.561,443.884H103.454c-2.682,0-5.005-1.592-6.087-3.875c-0.413,0.872-0.652,1.84-0.652,2.865
			c0,3.707,3.033,6.739,6.739,6.739h543.107c3.707,0,6.739-3.033,6.739-6.739c0-1.024-0.238-1.993-0.652-2.865
			C651.566,442.292,649.243,443.884,646.561,443.884z"/>
	</g>
	<g>
		<g>
			<g>
				<rect x="156.071" y="111.157" style="fill:#FFEEB5;" width="437.873" height="324.977"/>
				<polygon style="fill:#E8D490;" points="593.944,136.113 593.944,111.779 542.507,111.157 156.071,111.157 156.071,130.825 				
					"/>
				<rect x="156.071" y="308.776" style="fill:#E8D490;" width="437.873" height="127.358"/>
			</g>
			<g>
				<rect x="482.667" y="339.83" style="fill:#BAA663;" width="23.736" height="8.879"/>
				<rect x="470.799" y="348.709" style="fill:#D1BA6F;" width="23.736" height="8.879"/>
				<rect x="494.535" y="348.709" style="fill:#FFEEB5;" width="23.736" height="8.879"/>
			</g>
			<g>
				<rect x="213.11" y="328.815" style="fill:#D1BA6F;" width="23.736" height="8.879"/>
				<rect x="201.242" y="337.694" style="fill:#BAA663;" width="23.736" height="8.879"/>
				<rect x="224.978" y="337.694" style="fill:#FFEEB5;" width="23.736" height="8.879"/>
			</g>
			<g>
				
					<rect x="529.006" y="396.202" transform="matrix(-1 -1.224647e-16 1.224647e-16 -1 1081.7485 801.2821)" style="fill:#BAA663;" width="23.736" height="8.879"/>
				
					<rect x="540.874" y="387.323" transform="matrix(-1 -1.224647e-16 1.224647e-16 -1 1105.4846 783.524)" style="fill:#FFEEB5;" width="23.736" height="8.879"/>
				
					<rect x="517.138" y="387.323" transform="matrix(-1 -1.224647e-16 1.224647e-16 -1 1058.0126 783.524)" style="fill:#D1BA6F;" width="23.736" height="8.879"/>
			</g>
			<g>
				
					<rect x="264.056" y="377.208" transform="matrix(-1 -1.224647e-16 1.224647e-16 -1 551.8474 763.2954)" style="fill:#BAA663;" width="23.736" height="8.879"/>
				
					<rect x="275.924" y="368.329" transform="matrix(-1 -1.224647e-16 1.224647e-16 -1 575.5834 745.5373)" style="fill:#D1BA6F;" width="23.736" height="8.879"/>
				
					<rect x="252.188" y="368.329" transform="matrix(-1 -1.224647e-16 1.224647e-16 -1 528.1114 745.5373)" style="fill:#FFEEB5;" width="23.736" height="8.879"/>
			</g>
			<g>
				<rect x="187.08" y="387.302" style="fill:#D1BA6F;" width="23.736" height="8.879"/>
				<rect x="175.212" y="396.181" style="fill:#BAA663;" width="23.736" height="8.879"/>
				<rect x="198.948" y="396.181" style="fill:#FFEEB5;" width="23.736" height="8.879"/>
			</g>
		</g>
		<polygon style="fill:#DEC983;" points="593.944,416.764 156.071,429.96 156.071,436.134 593.944,436.134 		"/>
		<g>
			<g>
				<g>
					<g>
						<path style="fill:#D9988D;" d="M437.758,436.134H312.257V215.077c0-34.513,27.978-62.491,62.491-62.491h0.519
							c34.513,0,62.491,27.978,62.491,62.491V436.134z"/>
						<path style="fill:#BD7C71;" d="M375.952,162.142h-1.89c-29.328,0-53.103,23.775-53.103,53.103v220.889h108.096V215.245
							C429.055,185.917,405.28,162.142,375.952,162.142z"/>
					</g>
					<g>
						<g>
							<path style="fill:#FDB1A4;" d="M426.491,436.134H323.523V217.037c0-28.153,22.822-50.975,50.975-50.975h1.018
								c28.153,0,50.975,22.822,50.975,50.975V436.134z"/>
							<path style="fill:#F5A598;" d="M358.903,309.249h-16.994c-0.879-1.725-2.668-2.91-4.737-2.91
								c-2.937,0-5.318,2.381-5.318,5.318c0,2.937,2.381,5.318,5.318,5.318c2.069,0,3.858-1.184,4.737-2.91h16.994
								c1.324,0,2.408-1.083,2.408-2.408C361.311,310.333,360.227,309.249,358.903,309.249z"/>
							<path style="fill:#F5A598;" d="M330.236,331.452v78.105c0,3.162,2.557,5.725,5.712,5.725h78.118
								c3.155,0,5.712-2.563,5.712-5.725v-78.105c0-3.162-2.557-5.725-5.712-5.725h-78.118
								C332.794,325.727,330.236,328.29,330.236,331.452z"/>
							<path style="fill:#F5A598;" d="M419.778,285.471v-66.792c0-24.755-20.045-44.823-44.771-44.823h0
								c-24.726,0-44.771,20.068-44.771,44.823v66.792c0,3.09,2.502,5.595,5.588,5.595h78.366
								C417.276,291.065,419.778,288.561,419.778,285.471z"/>
							<polygon style="fill:#F5A598;" points="323.523,431.393 323.523,436.134 426.491,436.134 426.491,428.29 							"/>
						</g>
						<g>
							<path style="fill:#96D8F2;" d="M418.16,283.495v-64.302c0-23.832-19.32-43.152-43.152-43.152h0
								c-23.832,0-43.152,19.32-43.152,43.152v64.302c0,2.975,2.411,5.386,5.386,5.386h75.533
								C415.748,288.881,418.16,286.469,418.16,283.495z"/>
							<g>
								<path style="fill:#BFEDFF;" d="M375.007,187.375L375.007,187.375c-18.441,0-33.391,15.439-33.391,34.483v23.474
									c17.361-17.354,34.739-34.692,52.124-52.022C388.398,189.565,381.951,187.375,375.007,187.375z"/>
								<path style="fill:#BFEDFF;" d="M400.221,199.264c-19.548,19.486-39.085,38.983-58.605,58.498v9.878
									c20.855-20.858,41.695-41.731,62.524-62.616C403.021,202.967,401.71,201.035,400.221,199.264z"/>
								<path style="fill:#BFEDFF;" d="M404.231,277.546c2.302,0,4.168-1.927,4.168-4.304v-14.8l-19.104,19.104H404.231z"/>
								<path style="fill:#BFEDFF;" d="M407.54,214.069c-21.033,21.084-42.076,42.157-63.134,63.217
									c0.433,0.158,0.892,0.26,1.378,0.26h31.076l31.538-31.538v-24.15C408.398,219.179,408.101,216.572,407.54,214.069z"/>
							</g>
							<path style="fill:#6EB1CC;" d="M375.007,176.04L375.007,176.04c-23.832,0-43.152,19.32-43.152,43.152v64.302
								c0,2.975,2.411,5.386,5.386,5.386h75.533c2.975,0,5.386-2.411,5.386-5.386v-64.302
								C418.16,195.36,398.84,176.04,375.007,176.04z M414.206,279.949c0,2.768-2.19,5.012-4.893,5.012h-68.612
								c-2.702,0-4.893-2.244-4.893-5.012v-59.835c0-22.177,17.55-40.154,39.199-40.154h0c21.649,0,39.199,17.978,39.199,40.154
								V279.949z"/>
						</g>
						<g>
							<path style="fill:#96D8F2;" d="M331.855,332.948v75.113c0,3.041,2.465,5.506,5.506,5.506h75.293
								c3.041,0,5.506-2.465,5.506-5.506v-75.113c0-3.041-2.465-5.506-5.506-5.506h-75.293
								C334.32,327.442,331.855,329.907,331.855,332.948z"/>
							<g>
								<path style="fill:#BFEDFF;" d="M346.135,337.694c-2.332,0-4.223,1.878-4.223,4.195v28.757l32.952-32.952H346.135z"/>
								<path style="fill:#BFEDFF;" d="M403.88,337.694h-16.582c-15.129,15.129-30.257,30.257-45.386,45.386v16.04
									c0,1.552,0.858,2.892,2.12,3.618l63.279-63.279C406.545,338.394,405.298,337.694,403.88,337.694z"/>
								<polygon style="fill:#BFEDFF;" points="390.258,403.315 408.102,385.471 408.102,378.423 383.21,403.315 								"/>
								<path style="fill:#BFEDFF;" d="M355.889,403.315h14.888c12.442-12.442,24.884-24.884,37.326-37.326v-14.888L355.889,403.315
									z"/>
							</g>
							<path style="fill:#6EB1CC;" d="M412.654,327.442h-75.293c-3.041,0-5.506,2.465-5.506,5.506v75.113
								c0,3.041,2.465,5.506,5.506,5.506h75.293c3.041,0,5.506-2.465,5.506-5.506v-75.113
								C418.16,329.907,415.695,327.442,412.654,327.442z M413.784,404.623c0,2.762-2.215,5.002-4.947,5.002h-67.658
								c-2.732,0-4.947-2.239-4.947-5.002v-68.237c0-2.762,2.215-5.002,4.947-5.002h67.658c2.732,0,4.947,2.239,4.947,5.002V404.623
								z"/>
						</g>
						<g>
							<path style="fill:#96D8F2;" d="M342.49,309.057c0,2.937-2.381,5.318-5.318,5.318c-2.937,0-5.318-2.381-5.318-5.318
								c0-2.937,2.381-5.318,5.318-5.318C340.109,303.739,342.49,306.12,342.49,309.057z"/>
							<circle style="fill:#BFEDFF;" cx="337.173" cy="309.057" r="3.667"/>
							<path style="fill:#DEF6FF;" d="M358.903,311.465h-21.672c-1.324,0-2.408-1.083-2.408-2.408l0,0
								c0-1.324,1.084-2.408,2.408-2.408h21.672c1.324,0,2.408,1.084,2.408,2.408l0,0
								C361.311,310.381,360.227,311.465,358.903,311.465z"/>
						</g>
					</g>
				</g>
			</g>
			<g>
				<path style="fill:#6EB1CC;" d="M393.556,268.209h-35.975c-3.523,0-6.31-2.871-6.196-6.35l1.368-41.648
					c0.101-3.068,2.857-5.559,6.125-5.559h33.38c3.268,0,6.025,2.49,6.125,5.559l1.368,41.648
					C399.867,265.338,397.079,268.209,393.556,268.209z"/>
				<g>
					<path style="fill:none;stroke:#FFFFFF;stroke-width:0.9505;stroke-miterlimit:10;" d="M387.868,215.778l-10.929,10.929
						c-0.754,0.754-1.988,0.754-2.742,0l-10.929-10.929c-0.754-0.754-0.754-1.988,0-2.742l10.929-10.929
						c0.754-0.754,1.988-0.754,2.742,0l10.929,10.929C388.623,213.79,388.623,215.024,387.868,215.778z"/>
					<g>
						<path style="fill:#DE4E4F;" d="M392.259,266.461h-33.38c-3.268,0-5.943-2.674-5.943-5.943v-41.671
							c0-3.269,2.674-5.943,5.943-5.943h33.38c3.268,0,5.943,2.674,5.943,5.943v41.671
							C398.201,263.787,395.527,266.461,392.259,266.461z"/>
						<g>
							
								<text transform="matrix(1 0 0 1 357.8258 233.4436)" style="fill:#FFFFFF; font-family:'FredokaOne-Regular'; font-size:20.9525px;">WE</text>
							
								<text transform="matrix(1 0 0 1 358.1715 248.6731)" style="fill:#FFFFFF; font-family:'FredokaOne-Regular'; font-size:16.5231px;">ARE</text>
							
								<text transform="matrix(1 0 0 1 357.817 261.4338)" style="fill:#FFFFFF; font-family:'FredokaOne-Regular'; font-size:12.4111px;">OPEN</text>
						</g>
					</g>
					<circle style="fill:#FFFFFF;" cx="375.569" cy="203.449" r="2.274"/>
					<path style="opacity:0.1;fill:#522C25;" d="M392.259,212.904c3.268,0,5.943,2.674,5.943,5.943v41.671
						c0,3.268-2.674,5.943-5.943,5.943h-33.38c-3.268,0-5.943-2.674-5.943-5.943L392.259,212.904z"/>
				</g>
			</g>
		</g>
		<g>
			<path style="fill:#E8D490;" d="M294.981,275.207v13.802c0,0.764-0.619,1.383-1.383,1.383H172.043
				c-0.764,0-1.383-0.619-1.383-1.383v-13.802c0-0.764,0.619-1.383,1.383-1.383h121.555
				C294.362,273.824,294.981,274.443,294.981,275.207z"/>
			<g>
				<path style="fill:#FDB1A4;" d="M280.207,283.46h-94.774c-3.852,0-6.975-3.123-6.975-6.975V160.948
					c0-3.852,3.123-6.975,6.975-6.975h94.774c3.852,0,6.975,3.123,6.975,6.975v115.538
					C287.182,280.338,284.059,283.46,280.207,283.46z"/>
				<path style="fill:#D9988D;" d="M277.191,277.23h-88.742c-1.925,0-3.485-1.56-3.485-3.485V163.689
					c0-1.925,1.56-3.485,3.485-3.485h88.742c1.925,0,3.485,1.56,3.485,3.485v110.056C280.676,275.669,279.116,277.23,277.191,277.23
					z"/>
				<g>
					<path style="fill:#96D8F2;" d="M275.619,275.151h-85.597c-1.713,0-3.102-1.389-3.102-3.102V165.385
						c0-1.713,1.389-3.102,3.102-3.102h85.597c1.713,0,3.102,1.389,3.102,3.102v106.664
						C278.721,273.762,277.332,275.151,275.619,275.151z"/>
					<polygon style="fill:#6EB1CC;" points="225.965,275.151 239.676,275.151 237.607,162.282 228.034,162.282 					"/>
					<rect x="186.919" y="215.21" style="fill:#6EB1CC;" width="91.802" height="9.458"/>
					<path style="fill:#6EB1CC;" d="M275.619,162.282h-85.597c-1.713,0-3.102,1.389-3.102,3.102v106.664
						c0,1.713,1.389,3.102,3.102,3.102h85.597c1.713,0,3.102-1.389,3.102-3.102V165.385
						C278.721,163.671,277.332,162.282,275.619,162.282z M275.337,268.872c0,1.599-1.296,2.895-2.895,2.895h-79.243
						c-1.599,0-2.895-1.296-2.895-2.895v-100.31c0-1.599,1.296-2.895,2.895-2.895h79.243c1.599,0,2.895,1.296,2.895,2.895V268.872z"
						/>
				</g>
				<g>
					<path style="fill:#BFEDFF;" d="M224.893,175.603l0.084-4.543h-27.201c-1.425,0-2.581,1.156-2.581,2.581v31.66L224.893,175.603z
						"/>
					<polygon style="fill:#BFEDFF;" points="204.092,210.075 224.255,210.075 224.635,189.532 					"/>
					<polygon style="fill:#BFEDFF;" points="218.363,227.358 195.195,227.358 195.195,250.526 					"/>
					<path style="fill:#BFEDFF;" d="M197.776,266.373h0.551c8.48-8.48,16.959-16.959,25.439-25.439l0.1-5.408l-28.634,28.634
						C195.412,265.409,196.477,266.373,197.776,266.373z"/>
					<polygon style="fill:#BFEDFF;" points="211.997,266.373 223.295,266.373 223.508,254.862 					"/>
					<path style="fill:#BFEDFF;" d="M270.445,175.276v-1.635c0-1.425-1.156-2.581-2.581-2.581h-24.757c-0.8,0.8-1.6,1.6-2.4,2.4
						l0.574,30.98L270.445,175.276z"/>
					<path style="fill:#BFEDFF;" d="M270.445,194.255v-5.308c-7.043,7.042-14.085,14.085-21.128,21.128h5.308
						C259.898,204.801,265.172,199.528,270.445,194.255z"/>
					<path style="fill:#BFEDFF;" d="M270.445,227.77v-0.411h-19.433c-3.073,3.073-6.146,6.146-9.219,9.219l0.361,19.483
						L270.445,227.77z"/>
					<path style="fill:#BFEDFF;" d="M245.512,266.373h22.352c1.425,0,2.581-1.156,2.581-2.581V241.44L245.512,266.373z"/>
				</g>
			</g>
			<g>
				<g>
					<path style="fill:#D9988D;" d="M236.526,278.302h-7.411c-0.565,0-1.023-0.458-1.023-1.023V160.154
						c0-0.565,0.458-1.023,1.023-1.023h7.411c0.565,0,1.023,0.458,1.023,1.023v117.124
						C237.549,277.844,237.091,278.302,236.526,278.302z"/>
					<path style="fill:#BD7C71;" d="M233.184,278.211l-3.162-118.714c-0.003-0.13,0.023-0.251,0.062-0.366h-0.977
						c-0.561,0-1.015,0.462-1.015,1.031v117.108c0,0.57,0.455,1.031,1.015,1.031h4.097
						C233.2,278.27,233.185,278.243,233.184,278.211z"/>
				</g>
				<g>
					<path style="fill:#D9988D;" d="M283.751,214.934v7.566c0,0.522-0.423,0.946-0.946,0.946h-99.969
						c-0.522,0-0.946-0.424-0.946-0.946v-7.566c0-0.522,0.424-0.946,0.946-0.946h99.969
						C283.327,213.988,283.751,214.411,283.751,214.934z"/>
					<path style="fill:#BD7C71;" d="M283.673,218.353l-101.471,3.162c-0.111,0.003-0.215-0.023-0.312-0.062v0.977
						c0,0.561,0.395,1.015,0.881,1.015h100.099c0.487,0,0.881-0.455,0.881-1.015v-4.097
						C283.724,218.336,283.701,218.352,283.673,218.353z"/>
				</g>
			</g>
			<g>
				<path style="fill:#D9988D;" d="M293.04,271.379v13.845c0,0.752-0.609,1.361-1.361,1.361H173.962
					c-0.752,0-1.361-0.609-1.361-1.361v-13.845c0-0.752,0.61-1.362,1.361-1.362h117.717
					C292.43,270.018,293.04,270.627,293.04,271.379z"/>
				<path style="fill:#BD7C71;" d="M292.948,277.665l-119.978,5.539c-0.131,0.006-0.254-0.04-0.369-0.108v1.711
					c0,0.982,0.467,1.779,1.042,1.779h118.355c0.576,0,1.042-0.796,1.042-1.779v-7.178
					C293.008,277.636,292.981,277.663,292.948,277.665z"/>
			</g>
		</g>
		<g>
			<g>
				<path style="fill:#FDB1A4;" d="M565.092,283.46h-94.774c-3.852,0-6.975-3.123-6.975-6.975V160.948
					c0-3.852,3.123-6.975,6.975-6.975h94.774c3.852,0,6.975,3.123,6.975,6.975v115.538
					C572.067,280.338,568.944,283.46,565.092,283.46z"/>
				<path style="fill:#D9988D;" d="M562.076,277.23h-88.742c-1.925,0-3.485-1.56-3.485-3.485V163.689
					c0-1.925,1.56-3.485,3.485-3.485h88.742c1.925,0,3.485,1.56,3.485,3.485v110.056C565.561,275.669,564.001,277.23,562.076,277.23
					z"/>
				<g>
					<path style="fill:#96D8F2;" d="M560.503,275.151h-85.597c-1.713,0-3.102-1.389-3.102-3.102V165.385
						c0-1.713,1.389-3.102,3.102-3.102h85.597c1.713,0,3.102,1.389,3.102,3.102v106.664
						C563.606,273.762,562.217,275.151,560.503,275.151z"/>
					<polygon style="fill:#6EB1CC;" points="510.854,275.151 524.555,275.151 522.486,162.282 512.923,162.282 					"/>
					<rect x="471.804" y="215.481" style="fill:#6EB1CC;" width="91.802" height="9.457"/>
					<path style="fill:#6EB1CC;" d="M560.503,162.282h-85.597c-1.713,0-3.102,1.389-3.102,3.102v106.664
						c0,1.713,1.389,3.102,3.102,3.102h85.597c1.713,0,3.102-1.389,3.102-3.102V165.385
						C563.606,163.671,562.217,162.282,560.503,162.282z M560.221,268.872c0,1.599-1.296,2.895-2.895,2.895h-79.243
						c-1.599,0-2.895-1.296-2.895-2.895v-100.31c0-1.599,1.296-2.895,2.895-2.895h79.243c1.599,0,2.895,1.296,2.895,2.895V268.872z"
						/>
				</g>
				<g>
					<path style="fill:#BFEDFF;" d="M505.989,171.06h-23.328c-1.426,0-2.581,1.156-2.581,2.581v23.368
						C488.72,188.363,497.357,179.714,505.989,171.06z"/>
					<path style="fill:#BFEDFF;" d="M509.302,201.308l0.375-20.26c-9.659,9.68-19.323,19.355-28.991,29.026h19.849
						C503.457,207.153,506.38,204.23,509.302,201.308z"/>
					<polygon style="fill:#BFEDFF;" points="483.252,227.358 480.08,227.358 480.08,230.53 					"/>
					<polygon style="fill:#BFEDFF;" points="508.769,234.548 508.902,227.358 496.922,227.358 480.08,244.201 480.08,263.237 					
						"/>
					<polygon style="fill:#BFEDFF;" points="490.615,266.373 508.179,266.373 508.511,248.477 					"/>
					<polygon style="fill:#BFEDFF;" points="539.55,171.06 525.547,171.06 525.802,184.808 					"/>
					<path style="fill:#BFEDFF;" d="M533.243,210.075l22.087-22.087v-14.346c0-1.279-0.932-2.333-2.152-2.538l-27.126,27.126
						l0.219,11.845H533.243z"/>
					<polygon style="fill:#BFEDFF;" points="546.913,210.075 555.33,210.075 555.33,201.658 					"/>
					<path style="fill:#BFEDFF;" d="M547.859,227.358H529.63l-3.065,3.066l0.332,17.897
						C533.883,241.334,540.871,234.346,547.859,227.358z"/>
					<path style="fill:#BFEDFF;" d="M529.841,266.373l25.488-25.488v-7.327c-9.395,9.395-18.79,18.79-28.185,28.185l0.086,4.63
						H529.841z"/>
					<path style="fill:#BFEDFF;" d="M543.512,266.373h9.237c1.425,0,2.581-1.156,2.581-2.581v-9.237L543.512,266.373z"/>
				</g>
			</g>
			<g>
				<g>
					<path style="fill:#D9988D;" d="M521.41,278.302h-7.411c-0.565,0-1.023-0.458-1.023-1.023V160.154
						c0-0.565,0.458-1.023,1.023-1.023h7.411c0.565,0,1.023,0.458,1.023,1.023v117.124
						C522.434,277.844,521.975,278.302,521.41,278.302z"/>
					<path style="fill:#BD7C71;" d="M518.068,278.211l-3.162-118.714c-0.003-0.13,0.023-0.251,0.062-0.366h-0.977
						c-0.561,0-1.015,0.462-1.015,1.031v117.108c0,0.57,0.455,1.031,1.015,1.031h4.097
						C518.085,278.27,518.069,278.243,518.068,278.211z"/>
				</g>
				<g>
					<path style="fill:#D9988D;" d="M568.635,214.934v7.566c0,0.522-0.424,0.946-0.946,0.946H467.72
						c-0.522,0-0.946-0.424-0.946-0.946v-7.566c0-0.522,0.424-0.946,0.946-0.946h99.969
						C568.212,213.988,568.635,214.411,568.635,214.934z"/>
					<path style="fill:#BD7C71;" d="M568.558,218.353l-101.471,3.162c-0.111,0.003-0.214-0.023-0.313-0.062v0.977
						c0,0.561,0.395,1.015,0.881,1.015h100.099c0.487,0,0.881-0.455,0.881-1.015v-4.097
						C568.608,218.336,568.585,218.352,568.558,218.353z"/>
				</g>
			</g>
			<path style="fill:#E8D490;" d="M579.866,275.207v13.802c0,0.764-0.619,1.383-1.383,1.383H456.927
				c-0.764,0-1.383-0.619-1.383-1.383v-13.802c0-0.764,0.619-1.383,1.383-1.383h121.555
				C579.246,273.824,579.866,274.443,579.866,275.207z"/>
			<g>
				<path style="fill:#D9988D;" d="M577.925,271.379v13.845c0,0.752-0.609,1.361-1.361,1.361H458.847
					c-0.752,0-1.361-0.609-1.361-1.361v-13.845c0-0.752,0.609-1.362,1.361-1.362h117.717
					C577.315,270.018,577.925,270.627,577.925,271.379z"/>
				<path style="fill:#BD7C71;" d="M577.833,277.665l-119.978,5.539c-0.131,0.006-0.254-0.04-0.369-0.108v1.711
					c0,0.982,0.466,1.779,1.042,1.779h118.355c0.576,0,1.042-0.796,1.042-1.779v-7.178
					C577.893,277.636,577.865,277.663,577.833,277.665z"/>
			</g>
		</g>
		<g>
			<g>
				<path style="fill:#FDB1A4;" d="M601.568,126.69H148.367c-6.692,0-12.167-5.475-12.167-12.167l0,0
					c0-6.692,5.475-12.167,12.167-12.167h453.201c6.692,0,12.167,5.475,12.167,12.167l0,0
					C613.735,121.215,608.26,126.69,601.568,126.69z"/>
				<path style="fill:#D9988D;" d="M270.9,102.356c4.682,4.145,10.425,6.648,16.264,6.648l0.489,7.186h174.708l0.489-7.186
					c5.839,0,11.583-2.503,16.264-6.648H270.9z"/>
				<path style="fill:#D9988D;" d="M601.568,121.01H148.367c-5.713,0-10.527-3.996-11.816-9.327
					c-0.221,0.913-0.351,1.861-0.351,2.84c0,6.692,5.475,12.167,12.167,12.167h453.201c6.692,0,12.167-5.475,12.167-12.167
					c0-0.979-0.13-1.927-0.351-2.84C612.095,117.014,607.281,121.01,601.568,121.01z"/>
			</g>
			<g>
				<g>
					<g>
						<path style="fill:#FFFFFF;" d="M458.79,61.023v-7.605H291.225v7.605c-12.252,0-22.183,9.932-22.183,22.183
							s9.932,22.184,22.183,22.184v7.605H458.79v-7.605c12.251,0,22.183-9.932,22.183-22.184S471.041,61.023,458.79,61.023z"/>
						<g>
							<path style="fill:#DE4E4F;" d="M452.87,59.338v1.686v5.919h5.919c8.968,0,16.264,7.296,16.264,16.264
								c0,8.968-7.296,16.264-16.264,16.264h-5.919v5.919v1.686H297.144v-1.686v-5.919h-5.919c-8.968,0-16.264-7.296-16.264-16.264
								c0-8.968,7.296-16.264,16.264-16.264h5.919v-5.919v-1.686H452.87 M458.79,53.418H291.225v7.605
								c-12.252,0-22.183,9.932-22.183,22.183c0,12.252,9.932,22.184,22.183,22.184v7.605H458.79v-7.605
								c12.252,0,22.183-9.932,22.183-22.184c0-12.251-9.932-22.183-22.183-22.183V53.418L458.79,53.418z"/>
						</g>
					</g>
					
						<text transform="matrix(1 0 0 1 322.1139 99.9403)" style="fill:#DE4E4F; font-family:'ChunkFive-Roman'; font-size:45.4261px;">SHOP</text>
				</g>
				<path style="opacity:0.05;fill:#522C25;" d="M269.042,83.206c0,12.252,9.932,22.184,22.183,22.184v7.605H458.79v-7.605
					c12.251,0,22.183-9.932,22.183-22.184H269.042z"/>
			</g>
		</g>
	</g>
	<g>
		<g>
			<g>
				<path style="fill:#13AB85;" d="M140.495,398.376c0,0-14.164-34.431,11.674-88.618c25.838-54.187,25.6-78.737,25.6-78.737
					S209.856,292.694,140.495,398.376z"/>
				<path style="fill:#119171;" d="M149.725,383.582c2.038-3.446,3.959-6.837,5.783-10.179c9.964-38.82,11.824-69.914,9.827-94.165
					c-3.385,8.876-7.683,19.024-13.164,30.519c-7.543,15.819-11.673,29.951-13.745,42.038
					C141.5,368.222,146.787,378.715,149.725,383.582z"/>
				<path style="fill:#119171;" d="M150.626,347.235v34.799c20.785-35.557,29.879-65.548,33.086-89.193
					c-5.046,9.999-12.704,23.342-24.265,40.159C156.052,337.936,153.142,342.685,150.626,347.235z"/>
			</g>
			<g>
				<path style="fill:#13AB85;" d="M162.637,354.024c-2.025,1.316-3.936,2.642-5.787,3.971c0.826,9.261,1.703,18.519,2.304,27.79
					c51.85-37.653,54.49-75.352,54.49-75.352S203.423,327.503,162.637,354.024z"/>
				<path style="fill:#119171;" d="M162.637,354.024c-0.15,0.098-0.29,0.196-0.438,0.293v22.891
					c17.894-18.391,29.259-35.519,36.433-50.368C190.787,333.991,179.248,343.223,162.637,354.024z"/>
			</g>
			<path style="fill:#16C69A;" d="M150.625,385.727c57.019-58.603,47.767-104.398,47.767-104.398s-5.315,19.173-37.579,55.585
				c-3.896,4.396-7.262,8.696-10.188,12.863V385.727z"/>
			<path style="fill:#15BA91;" d="M150.626,378.044v7.682c47.048-48.355,48.976-87.987,48.211-100.369
				C197.91,302.593,190.36,337.206,150.626,378.044z"/>
			<g>
				<path style="fill:#13AB85;" d="M150.39,401.399c0,0,11.921-28.979-9.826-74.587c-21.747-45.607-21.546-66.27-21.546-66.27
					S92.012,312.451,150.39,401.399z"/>
				<path style="fill:#119171;" d="M114.289,314.476c2.95,19.796,10.782,44.678,28.082,74.042l5.886-25.931
					c-2.371-3.959-10.711-14.029-13.893-18.206C125.262,332.433,118.822,322.44,114.289,314.476z"/>
				<path style="fill:#119171;" d="M153.619,377.375c-0.274-12.686-3.208-29.911-13.055-50.562
					c-4.673-9.8-8.327-18.44-11.193-25.979c-3.195,58.458,22.476,85.938,22.476,85.938
					C152.494,383.585,153.076,380.461,153.619,377.375z"/>
			</g>
			<g>
				<path style="fill:#13AB85;" d="M131.754,364.07c1.704,1.108,3.313,2.224,4.871,3.342c-0.695,7.795-1.433,15.587-1.939,23.39
					c-43.641-31.691-45.863-63.421-45.863-63.421S97.426,341.749,131.754,364.07z"/>
				<path style="fill:#119171;" d="M132.893,381.628l3.334-14.495c-1.436-1.024-2.911-2.047-4.473-3.062
					c-11.855-7.709-20.64-14.468-27.064-20.015C110.772,355.388,119.731,368.101,132.893,381.628z"/>
			</g>
			<g>
				<path style="fill:#16C69A;" d="M141.864,390.753c-47.991-49.324-40.204-87.868-40.204-87.868s4.473,16.137,31.629,46.784
					c3.279,3.7,11.852,12.622,14.315,16.129L141.864,390.753z"/>
				<path style="fill:#15BA91;" d="M141.864,383.582c-33.15-34.071-39.684-62.994-40.556-77.627
					c-0.695,10.04,0.539,43.669,40.556,84.798l5.74-24.954c-0.324-0.462-0.76-1.022-1.27-1.648L141.864,383.582z"/>
			</g>
			<g>
				<path style="fill:#16C69A;" d="M151.847,386.771c0,0-24.535-28.002-17.605-87.633c6.93-59.631-1.233-82.785-1.233-82.785
					S183.313,264.34,151.847,386.771z"/>
				<path style="fill:#15BA91;" d="M140.289,298.409c4.57-39.324-1.754-65.994-6.592-79.603c1.811,7.335,6.197,31.699,0.545,80.332
					c-6.93,59.631,17.605,87.633,17.605,87.633c0.61-2.373,1.178-4.708,1.728-7.025
					C146.876,368.466,135.242,341.833,140.289,298.409z"/>
			</g>
		</g>
		<g>
			<path style="fill:#BD7C71;" d="M167.464,430.982h-44.308v2.759c0,1.517,1.241,2.758,2.758,2.758h38.791
				c1.517,0,2.758-1.241,2.758-2.758V430.982z"/>
			<path style="fill:#BD7C71;" d="M109.142,380.54h72.335v-6.109c0-1.612-1.319-2.93-2.93-2.93h-66.474
				c-1.612,0-2.93,1.319-2.93,2.93V380.54z"/>
			<path style="fill:#D9988D;" d="M167.464,430.982c0,0,11.649-17.622,14.014-50.442H145.31h-36.167
				c2.364,32.82,14.014,50.442,14.014,50.442H167.464z"/>
			<path style="fill:#C48175;" d="M165.738,380.54c-1.953,32.82-11.448,50.441-11.448,50.441h9.541c0,0,11.429-17.622,13.382-50.441
				C177.213,380.54,170.709,380.54,165.738,380.54z"/>
			<path style="fill:#D18D82;" d="M125.943,380.541c1.327,32.82,10.37,50.441,10.37,50.441h-9.426c0,0-11.092-17.622-12.419-50.441
				C114.469,380.541,120.972,380.541,125.943,380.541z"/>
			<path style="fill:#BD7C71;" d="M155.826,380.54c0.391,32.82-9.779,50.441-9.779,50.441h3.722c0,0,10.17-17.622,9.779-50.441
				C159.547,380.54,157.992,380.54,155.826,380.54z"/>
		</g>
	</g>
</g>
</svg>
